<?xml version="1.0" encoding="iso-8859-1"?>
<!-- Generator: Adobe Illustrator 17.1.0, SVG Export Plug-In . SVG Version: 6.00 Build 0)  -->
<!DOCTYPE svg PUBLIC "-//W3C//DTD SVG 1.1//EN" "http://www.w3.org/Graphics/SVG/1.1/DTD/svg11.dtd">
<svg version="1.1" id="Capa_1" xmlns="http://www.w3.org/2000/svg" xmlns:xlink="http://www.w3.org/1999/xlink" x="0px" y="0px"
	 viewBox="0 0 465 465" style="enable-background:new 0 0 465 465;" xml:space="preserve">
<g>
	<path d="M232.5,250.227c32.332,0,58.637-26.304,58.637-58.636c0-32.332-26.305-58.636-58.637-58.636s-58.637,26.304-58.637,58.636
		C173.863,223.923,200.168,250.227,232.5,250.227z M232.5,147.955c24.062,0,43.637,19.575,43.637,43.636
		c0,24.061-19.575,43.636-43.637,43.636s-43.637-19.575-43.637-43.636C188.863,167.53,208.438,147.955,232.5,147.955z"/>
	<path d="M315.3,321.73c-13.731-33.91-46.232-55.821-82.8-55.821s-69.068,21.911-82.8,55.821c-1.554,3.839,0.298,8.212,4.137,9.767
		c3.842,1.555,8.212-0.297,9.768-4.137c11.426-28.218,38.469-46.451,68.896-46.451s57.47,18.233,68.896,46.451
		c1.182,2.917,3.989,4.687,6.955,4.687c0.937,0,1.89-0.177,2.813-0.55C315.002,329.942,316.854,325.57,315.3,321.73z"/>
	<path d="M232.5,388.98c-12.406,0-22.5,10.094-22.5,22.5s10.094,22.5,22.5,22.5s22.5-10.094,22.5-22.5S244.906,388.98,232.5,388.98z
		 M232.5,418.98c-4.136,0-7.5-3.365-7.5-7.5s3.364-7.5,7.5-7.5s7.5,3.365,7.5,7.5S236.636,418.98,232.5,418.98z"/>
	<path d="M200.861,61.02h63.277c4.143,0,7.5-3.358,7.5-7.5s-3.357-7.5-7.5-7.5h-63.277c-4.143,0-7.5,3.358-7.5,7.5
		S196.719,61.02,200.861,61.02z"/>
	<path d="M324.546,0H140.454c-26.692,0-48.408,21.716-48.408,48.409v368.182c0,26.693,21.716,48.409,48.408,48.409h184.092
		c26.692,0,48.408-21.716,48.408-48.409V48.409C372.954,21.716,351.238,0,324.546,0z M107.046,107.041h250.908v250.918H107.046
		V107.041z M140.454,15h184.092c18.421,0,33.408,14.987,33.408,33.409v43.632H107.046V48.409C107.046,29.987,122.033,15,140.454,15z
		 M324.546,450H140.454c-18.421,0-33.408-14.987-33.408-33.409v-43.632h250.908v43.632C357.954,435.013,342.967,450,324.546,450z"/>
</g>
<g>
</g>
<g>
</g>
<g>
</g>
<g>
</g>
<g>
</g>
<g>
</g>
<g>
</g>
<g>
</g>
<g>
</g>
<g>
</g>
<g>
</g>
<g>
</g>
<g>
</g>
<g>
</g>
<g>
</g>
</svg>
